<svg xmlns="http://www.w3.org/2000/svg" width="24" height="19.501" viewBox="0 0 24 19.501"><defs><style>.a{fill:#faf8f4;}</style></defs><path class="a" d="M82.548,117.952a13.915,13.915,0,0,0,14.01-14.01c0-.213,0-.425-.014-.636A10.019,10.019,0,0,0,99,100.756a9.829,9.829,0,0,1-2.828.775,4.941,4.941,0,0,0,2.165-2.724A9.868,9.868,0,0,1,95.21,100a4.929,4.929,0,0,0-8.391,4.491A13.98,13.98,0,0,1,76.67,99.349a4.928,4.928,0,0,0,1.524,6.573,4.887,4.887,0,0,1-2.235-.616v.062a4.926,4.926,0,0,0,3.95,4.827,4.916,4.916,0,0,1-2.223.084,4.93,4.93,0,0,0,4.6,3.42,9.88,9.88,0,0,1-6.115,2.112A10.023,10.023,0,0,1,75,115.74a13.94,13.94,0,0,0,7.548,2.208" transform="translate(-75 -98.45)"/></svg>